/* XPM */
static char * mirage_xpm[] = {
"32 32 116 2",
"  	c None",
". 	c #387700",
"+ 	c #3E8002",
"@ 	c #438803",
"# 	c #468D04",
"$ 	c #489004",
"% 	c #478F04",
"& 	c #458C04",
"* 	c #3F8202",
"= 	c #3A7901",
"- 	c #357100",
"; 	c #367300",
"> 	c #4A9305",
", 	c #4F9C06",
"' 	c #4E9B06",
") 	c #4E9A06",
"! 	c #4D9806",
"~ 	c #357200",
"{ 	c #377500",
"] 	c #377400",
"^ 	c #478E04",
"/ 	c #4F9B06",
"( 	c #4D9906",
"_ 	c #3C7E01",
": 	c #4B9505",
"< 	c #3E8102",
"[ 	c #4A9405",
"} 	c #448A03",
"| 	c #3A7A01",
"1 	c #438903",
"2 	c #408403",
"3 	c #367400",
"4 	c #418503",
"5 	c #3D7E01",
"6 	c #357300",
"7 	c #499305",
"8 	c #479104",
"9 	c #3C8703",
"0 	c #4C9706",
"a 	c #3D7F01",
"b 	c #3B7C01",
"c 	c #3F8903",
"d 	c #747400",
"e 	c #B17600",
"f 	c #4D7500",
"g 	c #4D9706",
"h 	c #397901",
"i 	c #458E04",
"j 	c #706E00",
"k 	c #C87700",
"l 	c #C37700",
"m 	c #BF7700",
"n 	c #3C7B01",
"o 	c #448B03",
"p 	c #418602",
"q 	c #4C9705",
"r 	c #2E7700",
"s 	c #A56100",
"t 	c #C47800",
"u 	c #866B00",
"v 	c #418A03",
"w 	c #428603",
"x 	c #387600",
"y 	c #428703",
"z 	c #A26100",
"A 	c #A56000",
"B 	c #408402",
"C 	c #3C7D01",
"D 	c #509D07",
"E 	c #448903",
"F 	c #A16000",
"G 	c #C5B000",
"H 	c #D0BB0B",
"I 	c #D9C419",
"J 	c #E0CC24",
"K 	c #E7D32E",
"L 	c #EFDD37",
"M 	c #9D5A00",
"N 	c #9D5900",
"O 	c #EBDA31",
"P 	c #CCB604",
"Q 	c #DDC91E",
"R 	c #EFDC3B",
"S 	c #FCEA50",
"T 	c #FEEB52",
"U 	c #FDEA50",
"V 	c #FCE94F",
"W 	c #FFEF53",
"X 	c #C77900",
"Y 	c #C67900",
"Z 	c #C77A00",
"` 	c #FFF153",
" .	c #CEB907",
"..	c #EAD633",
"+.	c #FFEE52",
"@.	c #B18218",
"#.	c #B18419",
"$.	c #B18318",
"%.	c #DAC51A",
"&.	c #FDEA51",
"*.	c #FEEC50",
"=.	c #FEEC51",
"-.	c #D5C013",
";.	c #FFEC54",
">.	c #FFED54",
",.	c #D5C113",
"'.	c #D4BF11",
").	c #DAC61A",
"!.	c #DAC519",
"~.	c #D9C519",
"{.	c #D9C418",
"].	c #D8C418",
"^.	c #D8C417",
"/.	c #D8C317",
"(.	c #D7C316",
"_.	c #D2BD0E",
"                                                                ",
"                      . + @ # $ % & @ * = -                     ",
"                ; * > , ' ) ) ) ) ) ) ' , ! @ .                 ",
"            ~ + ! ' ) ) ) ) ) ) ) ) ) ) ) ) ) , & {             ",
"          ] ^ / ) ) ) ) ) ) ) ) ) ) ) ) ) ) ) ) ) ( _           ",
"        { : ) ) ) ) ) ) ) ) ) ) ) ) ) ) ) ) ) ) ) ) / <         ",
"      ; [ ) ) ) ) ) ) ) ) ) ) ) ) ) ) ) ) ) ) ) ) ) ) / _       ",
"      } ) ) ) ) ' ) ) ) ) ) ) ) ) ) ) ) ) ) ) ( ' ) ) ) ) {     ",
"    | , ) ) , 1 2 / ) ) ) ) ) ) ) ) ) ) ) ) , = 3 & / ) ) }     ",
"    % ) ) / +   ~ ( ) ) ) ) ) ) ) ) ) ) ) ) ! -     4 / ) ' 3   ",
"  { , ) / 5     6 7 ) ) ) ) ' 8 9 0 ) ) ) ) > ~       } ' / a   ",
"  < ' ) b         $ ) ) ) / c d e f g ) ) ) %         ; $ ) @   ",
"  1 ( h           # ) ) ) i j k l m n / ) ) o           3 : &   ",
"  p .             } ) ) q r s t l t u v ) ) w             x y   ",
"                  y ) / |   z t l t A r ! ' *               3   ",
"                  + , B     z t l t z   C D b                   ",
"                  { E 6     z t l t z     a ;                   ",
"                            z t l t z                           ",
"                            z t l t z                           ",
"                            z t l t z                           ",
"                            z t l t z                           ",
"                            z t l t z                           ",
"                            z t l t z                           ",
"                            z t l t z                           ",
"                            z t l t z                           ",
"                            F t l t F                           ",
"                G H I J K L M t l t N O J I H G                 ",
"          P Q R S T U V V W M X Y Z N ` V U T S R Q P           ",
"       ...T U V V V V V V +.@.#.#.#.$.+.V V V V V U T .. .      ",
"    %.&.V V V V V V V V V V *.=.=.=.*.V V V V V V V V V &.%.    ",
"  -.;.U U &.&.&.&.&.&.&.&.&.&.&.&.&.&.&.&.&.&.&.&.&.&.&.&.>.,.  ",
"  '.).%.).!.!.~.I {.].^.^././.(.(.(.(.(.(.(.(.(.(.(.(.(.(.(._.  "};
